<svg viewBox="0 0 100 100" xmlns="http://www.w3.org/2000/svg">
  <!-- Bear SVG -->
  <defs>
    <radialGradient id="bearGradient" cx="50%" cy="50%" r="50%">
      <stop offset="0%" style="stop-color:#8B4513;stop-opacity:1" />
      <stop offset="100%" style="stop-color:#654321;stop-opacity:1" />
    </radialGradient>
  </defs>
  
  <!-- Body -->
  <ellipse cx="50" cy="65" rx="25" ry="22" fill="url(#bearGradient)" stroke="#2F4F4F" stroke-width="1"/>
  
  <!-- Head -->
  <circle cx="50" cy="35" r="18" fill="url(#bearGradient)" stroke="#2F4F4F" stroke-width="1"/>
  
  <!-- Ears -->
  <circle cx="38" cy="22" r="6" fill="url(#bearGradient)" stroke="#2F4F4F" stroke-width="1"/>
  <circle cx="62" cy="22" r="6" fill="url(#bearGradient)" stroke="#2F4F4F" stroke-width="1"/>
  <circle cx="38" cy="22" r="3" fill="#8B4513"/>
  <circle cx="62" cy="22" r="3" fill="#8B4513"/>
  
  <!-- Snout -->
  <ellipse cx="50" cy="42" rx="8" ry="6" fill="#DEB887" stroke="#2F4F4F" stroke-width="1"/>
  
  <!-- Eyes -->
  <circle cx="44" cy="30" r="2.5" fill="#000"/>
  <circle cx="56" cy="30" r="2.5" fill="#000"/>
  <circle cx="45" cy="29" r="0.5" fill="#FFF"/>
  <circle cx="57" cy="29" r="0.5" fill="#FFF"/>
  
  <!-- Nose -->
  <circle cx="50" cy="40" r="2.5" fill="#000"/>
  
  <!-- Mouth -->
  <path d="M 45 45 Q 50 48 55 45" stroke="#2F4F4F" stroke-width="2" fill="none"/>
  
  <!-- Arms -->
  <ellipse cx="25" cy="60" rx="8" ry="18" fill="url(#bearGradient)" stroke="#2F4F4F" stroke-width="1"/>
  <ellipse cx="75" cy="60" rx="8" ry="18" fill="url(#bearGradient)" stroke="#2F4F4F" stroke-width="1"/>
  
  <!-- Legs -->
  <ellipse cx="38" cy="85" rx="6" ry="12" fill="url(#bearGradient)" stroke="#2F4F4F" stroke-width="1"/>
  <ellipse cx="62" cy="85" rx="6" ry="12" fill="url(#bearGradient)" stroke="#2F4F4F" stroke-width="1"/>
  
  <!-- Paws -->
  <circle cx="25" cy="75" r="5" fill="#2F4F4F"/>
  <circle cx="75" cy="75" r="5" fill="#2F4F4F"/>
  <ellipse cx="38" cy="95" rx="5" ry="3" fill="#2F4F4F"/>
  <ellipse cx="62" cy="95" rx="5" ry="3" fill="#2F4F4F"/>
  
  <!-- Claws -->
  <path d="M 22 72 L 20 70" stroke="#000" stroke-width="1"/>
  <path d="M 25 70 L 23 68" stroke="#000" stroke-width="1"/>
  <path d="M 28 72 L 30 70" stroke="#000" stroke-width="1"/>
  
  <path d="M 72 72 L 70 70" stroke="#000" stroke-width="1"/>
  <path d="M 75 70 L 77 68" stroke="#000" stroke-width="1"/>
  <path d="M 78 72 L 80 70" stroke="#000" stroke-width="1"/>
</svg>
