<svg viewBox="0 0 100 100" xmlns="http://www.w3.org/2000/svg">
  <!-- Wolf SVG -->
  <defs>
    <radialGradient id="wolfGradient" cx="50%" cy="50%" r="50%">
      <stop offset="0%" style="stop-color:#C0C0C0;stop-opacity:1" />
      <stop offset="100%" style="stop-color:#696969;stop-opacity:1" />
    </radialGradient>
  </defs>
  
  <!-- Body -->
  <ellipse cx="50" cy="65" rx="22" ry="18" fill="url(#wolfGradient)" stroke="#2F4F4F" stroke-width="1"/>
  
  <!-- Head -->
  <ellipse cx="50" cy="35" rx="14" ry="16" fill="url(#wolfGradient)" stroke="#2F4F4F" stroke-width="1"/>
  
  <!-- Snout -->
  <ellipse cx="50" cy="45" rx="6" ry="8" fill="url(#wolfGradient)" stroke="#2F4F4F" stroke-width="1"/>
  
  <!-- Ears -->
  <ellipse cx="40" cy="22" rx="4" ry="8" fill="url(#wolfGradient)" stroke="#2F4F4F" stroke-width="1"/>
  <ellipse cx="60" cy="22" rx="4" ry="8" fill="url(#wolfGradient)" stroke="#2F4F4F" stroke-width="1"/>
  <ellipse cx="40" cy="22" rx="2" ry="5" fill="#FFB6C1"/>
  <ellipse cx="60" cy="22" rx="2" ry="5" fill="#FFB6C1"/>
  
  <!-- Eyes -->
  <circle cx="45" cy="32" r="2.5" fill="#FFD700"/>
  <circle cx="55" cy="32" r="2.5" fill="#FFD700"/>
  <ellipse cx="45" cy="32" rx="1" ry="2" fill="#000"/>
  <ellipse cx="55" cy="32" rx="1" ry="2" fill="#000"/>
  <circle cx="45.5" cy="31" r="0.3" fill="#FFF"/>
  <circle cx="55.5" cy="31" r="0.3" fill="#FFF"/>
  
  <!-- Nose -->
  <circle cx="50" cy="48" r="2" fill="#000"/>
  
  <!-- Mouth -->
  <path d="M 47 50 Q 50 52 53 50" stroke="#2F4F4F" stroke-width="1.5" fill="none"/>
  
  <!-- Teeth -->
  <path d="M 48 51 L 47 53" stroke="#FFF" stroke-width="1"/>
  <path d="M 52 51 L 53 53" stroke="#FFF" stroke-width="1"/>
  
  <!-- Legs -->
  <ellipse cx="38" cy="85" rx="4" ry="12" fill="url(#wolfGradient)" stroke="#2F4F4F" stroke-width="1"/>
  <ellipse cx="48" cy="85" rx="4" ry="12" fill="url(#wolfGradient)" stroke="#2F4F4F" stroke-width="1"/>
  <ellipse cx="52" cy="85" rx="4" ry="12" fill="url(#wolfGradient)" stroke="#2F4F4F" stroke-width="1"/>
  <ellipse cx="62" cy="85" rx="4" ry="12" fill="url(#wolfGradient)" stroke="#2F4F4F" stroke-width="1"/>
  
  <!-- Paws -->
  <ellipse cx="38" cy="95" rx="3" ry="2" fill="#2F4F4F"/>
  <ellipse cx="48" cy="95" rx="3" ry="2" fill="#2F4F4F"/>
  <ellipse cx="52" cy="95" rx="3" ry="2" fill="#2F4F4F"/>
  <ellipse cx="62" cy="95" rx="3" ry="2" fill="#2F4F4F"/>
  
  <!-- Tail -->
  <ellipse cx="72" cy="70" rx="6" ry="15" fill="url(#wolfGradient)" stroke="#2F4F4F" stroke-width="1"/>
  <ellipse cx="75" cy="60" rx="3" ry="8" fill="url(#wolfGradient)" stroke="#2F4F4F" stroke-width="1"/>
</svg>
