<svg viewBox="0 0 100 100" xmlns="http://www.w3.org/2000/svg">
  <!-- Corn SVG -->
  <defs>
    <radialGradient id="cornGradient" cx="50%" cy="50%" r="50%">
      <stop offset="0%" style="stop-color:#FFD700;stop-opacity:1" />
      <stop offset="100%" style="stop-color:#DAA520;stop-opacity:1" />
    </radialGradient>
    <linearGradient id="leafGradient" x1="0%" y1="0%" x2="100%" y2="100%">
      <stop offset="0%" style="stop-color:#9ACD32;stop-opacity:1" />
      <stop offset="100%" style="stop-color:#556B2F;stop-opacity:1" />
    </linearGradient>
  </defs>
  
  <!-- Corn cob -->
  <ellipse cx="50" cy="55" rx="12" ry="25" fill="url(#cornGradient)" stroke="#B8860B" stroke-width="1"/>
  
  <!-- Corn kernels pattern -->
  <g fill="#FFA500" opacity="0.8">
    <!-- Row 1 -->
    <circle cx="44" cy="40" r="1.5"/>
    <circle cx="50" cy="40" r="1.5"/>
    <circle cx="56" cy="40" r="1.5"/>
    
    <!-- Row 2 -->
    <circle cx="42" cy="45" r="1.5"/>
    <circle cx="48" cy="45" r="1.5"/>
    <circle cx="54" cy="45" r="1.5"/>
    <circle cx="60" cy="45" r="1.5"/>
    
    <!-- Row 3 -->
    <circle cx="44" cy="50" r="1.5"/>
    <circle cx="50" cy="50" r="1.5"/>
    <circle cx="56" cy="50" r="1.5"/>
    
    <!-- Row 4 -->
    <circle cx="42" cy="55" r="1.5"/>
    <circle cx="48" cy="55" r="1.5"/>
    <circle cx="54" cy="55" r="1.5"/>
    <circle cx="60" cy="55" r="1.5"/>
    
    <!-- Row 5 -->
    <circle cx="44" cy="60" r="1.5"/>
    <circle cx="50" cy="60" r="1.5"/>
    <circle cx="56" cy="60" r="1.5"/>
    
    <!-- Row 6 -->
    <circle cx="42" cy="65" r="1.5"/>
    <circle cx="48" cy="65" r="1.5"/>
    <circle cx="54" cy="65" r="1.5"/>
    <circle cx="60" cy="65" r="1.5"/>
    
    <!-- Row 7 -->
    <circle cx="44" cy="70" r="1.5"/>
    <circle cx="50" cy="70" r="1.5"/>
    <circle cx="56" cy="70" r="1.5"/>
  </g>
  
  <!-- Corn husks -->
  <path d="M 38 30 Q 35 40 32 50 Q 30 60 35 70" fill="url(#leafGradient)" stroke="#556B2F" stroke-width="1"/>
  <path d="M 62 30 Q 65 40 68 50 Q 70 60 65 70" fill="url(#leafGradient)" stroke="#556B2F" stroke-width="1"/>
  <path d="M 45 25 Q 40 35 38 45" fill="url(#leafGradient)" stroke="#556B2F" stroke-width="1"/>
  <path d="M 55 25 Q 60 35 62 45" fill="url(#leafGradient)" stroke="#556B2F" stroke-width="1"/>
  
  <!-- Corn silk -->
  <g stroke="#DEB887" stroke-width="0.5" fill="none">
    <path d="M 48 30 Q 45 25 42 20"/>
    <path d="M 50 30 Q 48 25 45 18"/>
    <path d="M 52 30 Q 55 25 58 20"/>
    <path d="M 54 30 Q 57 25 60 18"/>
    <path d="M 46 30 Q 43 22 40 15"/>
    <path d="M 56 30 Q 59 22 62 15"/>
  </g>
  
  <!-- Stem -->
  <ellipse cx="50" cy="85" rx="4" ry="8" fill="url(#leafGradient)" stroke="#556B2F" stroke-width="1"/>
  
  <!-- Roots -->
  <g stroke="#8B4513" stroke-width="1" fill="none">
    <path d="M 46 92 Q 40 95 35 98"/>
    <path d="M 50 93 Q 50 96 50 99"/>
    <path d="M 54 92 Q 60 95 65 98"/>
    <path d="M 48 92 Q 42 96 38 99"/>
    <path d="M 52 92 Q 58 96 62 99"/>
  </g>
</svg>
