<svg viewBox="0 0 100 100" xmlns="http://www.w3.org/2000/svg">
  <!-- Lizard SVG -->
  <defs>
    <radialGradient id="lizardGradient" cx="50%" cy="50%" r="50%">
      <stop offset="0%" style="stop-color:#9ACD32;stop-opacity:1" />
      <stop offset="100%" style="stop-color:#556B2F;stop-opacity:1" />
    </radialGradient>
  </defs>
  
  <!-- Body -->
  <ellipse cx="50" cy="50" rx="25" ry="12" fill="url(#lizardGradient)" stroke="#2F4F2F" stroke-width="1"/>
  
  <!-- Head -->
  <ellipse cx="75" cy="45" rx="12" ry="8" fill="url(#lizardGradient)" stroke="#2F4F2F" stroke-width="1"/>
  
  <!-- Eyes -->
  <circle cx="80" cy="42" r="2" fill="#FFD700"/>
  <circle cx="80" cy="48" r="2" fill="#FFD700"/>
  <ellipse cx="80" cy="42" rx="0.5" ry="1.5" fill="#000"/>
  <ellipse cx="80" cy="48" rx="0.5" ry="1.5" fill="#000"/>
  
  <!-- Mouth -->
  <path d="M 85 45 L 90 45" stroke="#2F4F2F" stroke-width="1"/>
  
  <!-- Legs -->
  <ellipse cx="35" cy="40" rx="8" ry="4" fill="url(#lizardGradient)" stroke="#2F4F2F" stroke-width="1"/>
  <ellipse cx="35" cy="60" rx="8" ry="4" fill="url(#lizardGradient)" stroke="#2F4F2F" stroke-width="1"/>
  <ellipse cx="65" cy="40" rx="8" ry="4" fill="url(#lizardGradient)" stroke="#2F4F2F" stroke-width="1"/>
  <ellipse cx="65" cy="60" rx="8" ry="4" fill="url(#lizardGradient)" stroke="#2F4F2F" stroke-width="1"/>
  
  <!-- Feet -->
  <circle cx="28" cy="40" r="3" fill="url(#lizardGradient)" stroke="#2F4F2F" stroke-width="1"/>
  <circle cx="28" cy="60" r="3" fill="url(#lizardGradient)" stroke="#2F4F2F" stroke-width="1"/>
  <circle cx="72" cy="40" r="3" fill="url(#lizardGradient)" stroke="#2F4F2F" stroke-width="1"/>
  <circle cx="72" cy="60" r="3" fill="url(#lizardGradient)" stroke="#2F4F2F" stroke-width="1"/>
  
  <!-- Toes -->
  <circle cx="25" cy="38" r="1" fill="#2F4F2F"/>
  <circle cx="25" cy="42" r="1" fill="#2F4F2F"/>
  <circle cx="25" cy="58" r="1" fill="#2F4F2F"/>
  <circle cx="25" cy="62" r="1" fill="#2F4F2F"/>
  <circle cx="75" cy="38" r="1" fill="#2F4F2F"/>
  <circle cx="75" cy="42" r="1" fill="#2F4F2F"/>
  <circle cx="75" cy="58" r="1" fill="#2F4F2F"/>
  <circle cx="75" cy="62" r="1" fill="#2F4F2F"/>
  
  <!-- Tail -->
  <ellipse cx="20" cy="50" rx="15" ry="6" fill="url(#lizardGradient)" stroke="#2F4F2F" stroke-width="1"/>
  <ellipse cx="8" cy="50" rx="8" ry="4" fill="url(#lizardGradient)" stroke="#2F4F2F" stroke-width="1"/>
  
  <!-- Scales pattern -->
  <circle cx="45" cy="45" r="1" fill="#228B22" opacity="0.6"/>
  <circle cx="55" cy="48" r="1" fill="#228B22" opacity="0.6"/>
  <circle cx="50" cy="52" r="1" fill="#228B22" opacity="0.6"/>
  <circle cx="40" cy="50" r="1" fill="#228B22" opacity="0.6"/>
  <circle cx="60" cy="45" r="1" fill="#228B22" opacity="0.6"/>
  
  <!-- Tail stripes -->
  <ellipse cx="15" cy="50" rx="2" ry="4" fill="#2F4F2F" opacity="0.5"/>
  <ellipse cx="25" cy="50" rx="2" ry="5" fill="#2F4F2F" opacity="0.5"/>
</svg>
