<svg viewBox="0 0 100 100" xmlns="http://www.w3.org/2000/svg">
  <!-- Mouse SVG -->
  <defs>
    <radialGradient id="mouseGradient" cx="50%" cy="50%" r="50%">
      <stop offset="0%" style="stop-color:#D3D3D3;stop-opacity:1" />
      <stop offset="100%" style="stop-color:#A9A9A9;stop-opacity:1" />
    </radialGradient>
  </defs>
  
  <!-- Body -->
  <ellipse cx="45" cy="60" rx="15" ry="18" fill="url(#mouseGradient)" stroke="#696969" stroke-width="1"/>
  
  <!-- Head -->
  <circle cx="50" cy="35" r="12" fill="url(#mouseGradient)" stroke="#696969" stroke-width="1"/>
  
  <!-- Ears -->
  <circle cx="42" cy="25" r="6" fill="url(#mouseGradient)" stroke="#696969" stroke-width="1"/>
  <circle cx="58" cy="25" r="6" fill="url(#mouseGradient)" stroke="#696969" stroke-width="1"/>
  <circle cx="42" cy="25" r="3" fill="#FFB6C1"/>
  <circle cx="58" cy="25" r="3" fill="#FFB6C1"/>
  
  <!-- Eyes -->
  <circle cx="46" cy="32" r="2" fill="#000"/>
  <circle cx="54" cy="32" r="2" fill="#000"/>
  <circle cx="47" cy="31" r="0.5" fill="#FFF"/>
  <circle cx="55" cy="31" r="0.5" fill="#FFF"/>
  
  <!-- Nose -->
  <circle cx="50" cy="38" r="1" fill="#FFB6C1"/>
  
  <!-- Mouth -->
  <path d="M 48 40 Q 50 41 52 40" stroke="#696969" stroke-width="1" fill="none"/>
  
  <!-- Whiskers -->
  <path d="M 35 35 L 42 36" stroke="#696969" stroke-width="0.5"/>
  <path d="M 35 38 L 42 38" stroke="#696969" stroke-width="0.5"/>
  <path d="M 35 41 L 42 40" stroke="#696969" stroke-width="0.5"/>
  <path d="M 65 35 L 58 36" stroke="#696969" stroke-width="0.5"/>
  <path d="M 65 38 L 58 38" stroke="#696969" stroke-width="0.5"/>
  <path d="M 65 41 L 58 40" stroke="#696969" stroke-width="0.5"/>
  
  <!-- Legs -->
  <ellipse cx="38" cy="75" rx="3" ry="8" fill="url(#mouseGradient)" stroke="#696969" stroke-width="1"/>
  <ellipse cx="52" cy="75" rx="3" ry="8" fill="url(#mouseGradient)" stroke="#696969" stroke-width="1"/>
  
  <!-- Feet -->
  <ellipse cx="38" cy="82" rx="4" ry="2" fill="url(#mouseGradient)" stroke="#696969" stroke-width="1"/>
  <ellipse cx="52" cy="82" rx="4" ry="2" fill="url(#mouseGradient)" stroke="#696969" stroke-width="1"/>
  
  <!-- Tail -->
  <path d="M 30 65 Q 15 70 10 85 Q 8 90 12 92" stroke="#696969" stroke-width="3" fill="none"/>
  
  <!-- Front paws -->
  <circle cx="40" cy="50" r="2" fill="url(#mouseGradient)" stroke="#696969" stroke-width="1"/>
  <circle cx="50" cy="48" r="2" fill="url(#mouseGradient)" stroke="#696969" stroke-width="1"/>
</svg>
