<svg viewBox="0 0 100 100" xmlns="http://www.w3.org/2000/svg">
  <!-- Rabbit SVG -->
  <defs>
    <radialGradient id="rabbitGradient" cx="50%" cy="50%" r="50%">
      <stop offset="0%" style="stop-color:#F5F5DC;stop-opacity:1" />
      <stop offset="100%" style="stop-color:#D2B48C;stop-opacity:1" />
    </radialGradient>
  </defs>
  
  <!-- Body -->
  <ellipse cx="50" cy="65" rx="18" ry="22" fill="url(#rabbitGradient)" stroke="#8B4513" stroke-width="1"/>
  
  <!-- Head -->
  <circle cx="50" cy="35" r="15" fill="url(#rabbitGradient)" stroke="#8B4513" stroke-width="1"/>
  
  <!-- Ears -->
  <ellipse cx="42" cy="22" rx="4" ry="12" fill="url(#rabbitGradient)" stroke="#8B4513" stroke-width="1"/>
  <ellipse cx="58" cy="22" rx="4" ry="12" fill="url(#rabbitGradient)" stroke="#8B4513" stroke-width="1"/>
  
  <!-- Inner ears -->
  <ellipse cx="42" cy="22" rx="2" ry="8" fill="#FFB6C1"/>
  <ellipse cx="58" cy="22" rx="2" ry="8" fill="#FFB6C1"/>
  
  <!-- Eyes -->
  <circle cx="45" cy="32" r="2" fill="#000"/>
  <circle cx="55" cy="32" r="2" fill="#000"/>
  <circle cx="46" cy="31" r="0.5" fill="#FFF"/>
  <circle cx="56" cy="31" r="0.5" fill="#FFF"/>
  
  <!-- Nose -->
  <ellipse cx="50" cy="38" rx="1.5" ry="1" fill="#FFB6C1"/>
  
  <!-- Mouth -->
  <path d="M 48 40 Q 50 42 52 40" stroke="#8B4513" stroke-width="1" fill="none"/>
  
  <!-- Tail -->
  <circle cx="35" cy="70" r="4" fill="url(#rabbitGradient)" stroke="#8B4513" stroke-width="1"/>
  
  <!-- Legs -->
  <ellipse cx="42" cy="82" rx="3" ry="8" fill="url(#rabbitGradient)" stroke="#8B4513" stroke-width="1"/>
  <ellipse cx="58" cy="82" rx="3" ry="8" fill="url(#rabbitGradient)" stroke="#8B4513" stroke-width="1"/>
  
  <!-- Feet -->
  <ellipse cx="42" cy="90" rx="5" ry="3" fill="url(#rabbitGradient)" stroke="#8B4513" stroke-width="1"/>
  <ellipse cx="58" cy="90" rx="5" ry="3" fill="url(#rabbitGradient)" stroke="#8B4513" stroke-width="1"/>
</svg>
