<svg viewBox="0 0 100 100" xmlns="http://www.w3.org/2000/svg">
  <!-- Raccoon SVG -->
  <defs>
    <radialGradient id="raccoonGradient" cx="50%" cy="50%" r="50%">
      <stop offset="0%" style="stop-color:#A9A9A9;stop-opacity:1" />
      <stop offset="100%" style="stop-color:#696969;stop-opacity:1" />
    </radialGradient>
  </defs>
  
  <!-- Body -->
  <ellipse cx="50" cy="65" rx="20" ry="25" fill="url(#raccoonGradient)" stroke="#2F4F4F" stroke-width="1"/>
  
  <!-- Head -->
  <circle cx="50" cy="35" r="16" fill="url(#raccoonGradient)" stroke="#2F4F4F" stroke-width="1"/>
  
  <!-- Ears -->
  <circle cx="40" cy="22" r="6" fill="url(#raccoonGradient)" stroke="#2F4F4F" stroke-width="1"/>
  <circle cx="60" cy="22" r="6" fill="url(#raccoonGradient)" stroke="#2F4F4F" stroke-width="1"/>
  <circle cx="40" cy="22" r="3" fill="#FFB6C1"/>
  <circle cx="60" cy="22" r="3" fill="#FFB6C1"/>
  
  <!-- Face mask (distinctive raccoon feature) -->
  <ellipse cx="50" cy="35" rx="12" ry="8" fill="#2F4F4F"/>
  
  <!-- Eyes -->
  <circle cx="45" cy="32" r="3" fill="#FFF"/>
  <circle cx="55" cy="32" r="3" fill="#FFF"/>
  <circle cx="45" cy="32" r="2" fill="#000"/>
  <circle cx="55" cy="32" r="2" fill="#000"/>
  <circle cx="46" cy="31" r="0.5" fill="#FFF"/>
  <circle cx="56" cy="31" r="0.5" fill="#FFF"/>
  
  <!-- Nose -->
  <circle cx="50" cy="38" r="2" fill="#000"/>
  
  <!-- Mouth -->
  <path d="M 47 41 Q 50 43 53 41" stroke="#2F4F4F" stroke-width="1.5" fill="none"/>
  
  <!-- Tail with rings -->
  <ellipse cx="30" cy="75" rx="8" ry="20" fill="url(#raccoonGradient)" stroke="#2F4F4F" stroke-width="1"/>
  <ellipse cx="30" cy="70" rx="6" ry="3" fill="#2F4F4F"/>
  <ellipse cx="30" cy="80" rx="6" ry="3" fill="#2F4F4F"/>
  <ellipse cx="30" cy="90" rx="6" ry="3" fill="#2F4F4F"/>
  
  <!-- Legs -->
  <ellipse cx="40" cy="85" rx="4" ry="10" fill="url(#raccoonGradient)" stroke="#2F4F4F" stroke-width="1"/>
  <ellipse cx="60" cy="85" rx="4" ry="10" fill="url(#raccoonGradient)" stroke="#2F4F4F" stroke-width="1"/>
  
  <!-- Paws -->
  <circle cx="40" cy="93" r="4" fill="#2F4F4F"/>
  <circle cx="60" cy="93" r="4" fill="#2F4F4F"/>
</svg>
